#!OML:ASF F:\VICON\USERDATA\INSTALL\Justin_Nancy\Justin_Nancy.ASF
:FULLY-SPECIFIED
:DEGREES
175
root 0.0898556 17.7301 -5.28775 -3.17201 8.19113 -3.21455
lowerback 6.38931 -1.52135 0.470736
upperback 0.774763 -1.8689 4.08344
thorax -2.66106 -0.917739 4.12182
lowerneck -15.1015 -4.63908 -10.2491
upperneck 22.8936 -5.19863 5.32552
head 10.2234 -2.68311 2.90275
rclavicle 2.41772e-014 -1.35174e-014
rhumerus -32.884 -14.2831 -77.256
rradius 27.588
rwrist 7.91358
rhand -15.8677 11.8937
rfingers 7.12502
rthumb 10.3277 -17.8327
lclavicle 2.41772e-014 -1.35174e-014
lhumerus -26.0524 1.78447 89.8212
lradius 26.9533
lwrist -13.7362
lhand -13.2827 26.4579
lfingers 7.12502
lthumb 12.8207 56.0442
rfemur -10.3949 2.41071 27.7239
rtibia 16.3333
rfoot 1.83208 -7.42069
rtoes 2.43557
lfemur -11.6043 -0.10486 -14.4565
ltibia 65.1301
lfoot 9.08797 -9.60828
ltoes -7.58933
176
root 0.0757688 17.7469 -5.20288 -3.14556 8.2123 -2.9996
lowerback 6.45208 -1.46586 0.164337
upperback 0.812853 -1.81745 4.04583
thorax -2.65179 -0.889713 4.25299
lowerneck -15.317 -4.66554 -10.3407
upperneck 22.9795 -5.23981 5.51532
head 10.307 -2.68586 2.97854
rclavicle 6.78353e-015 -2.06736e-014
rhumerus -32.3121 -13.8887 -77.4059
rradius 27.8472
rwrist 7.81424
rhand -15.8748 11.7318
rfingers 7.12502
rthumb 10.3209 -17.9949
lclavicle 6.78353e-015 -2.06736e-014
lhumerus -26.0445 2.60763 89.6672
lradius 26.7095
lwrist -14.8586
lhand -12.8249 27.1867
lfingers 7.12502
lthumb 13.262 56.7448
rfemur -9.7935 2.39302 27.6089
rtibia 15.7959
rfoot 1.63269 -7.71195
rtoes 3.24949
lfemur -12.7085 0.163276 -14.5283
ltibia 66.4886
lfoot 6.08207 -9.35509
ltoes -16.6562
177
root 0.0616859 17.7609 -5.13074 -3.19222 8.00553 -2.89893
lowerback 6.67136 -1.3184 0.0148007
upperback 0.783839 -1.62707 3.986
thorax -2.81562 -0.791211 4.26734
lowerneck -15.4389 -4.65873 -10.3246
upperneck 23.1941 -5.26942 5.67228
head 10.4141 -2.68039 3.02956
rclavicle 1.47101e-014 1.19271e-014
rhumerus -31.7476 -13.8911 -77.4615
rradius 27.6985
rwrist 8.05024
rhand -16.2118 12.2532
rfingers 7.12502
rthumb 9.99581 -17.4895
lclavicle 1.47101e-014 1.19271e-014
lhumerus -26.2508 2.97695 89.5183
lradius 26.715
lwrist -15.1797
lhand -12.1282 27.9376
lfingers 7.12502
lthumb 13.9334 57.4508
rfemur -9.13776 2.57985 27.6269
rtibia 15.1731
rfoot 1.5891 -7.8947
rtoes 3.57736
lfemur -13.6624 0.541791 -14.4729
ltibia 67.7068
lfoot 10.7439 -10.6316
ltoes 6.32219
178
root 0.0474903 17.777 -5.0545 -3.26202 7.62118 -3.10142
lowerback 6.61432 -1.06112 0.227679
upperback 0.878547 -1.27395 3.95012
thorax -2.71706 -0.61915 4.07453
lowerneck -15.2591 -4.7392 -10.2354
upperneck 23.0216 -5.45178 5.79664
head 10.3337 -2.74287 3.03374
rclavicle -1.56046e-014 3.57812e-014
rhumerus -31.1363 -13.9693 -77.5448
rradius 27.7692
rwrist 8.41101
rhand -16.3613 11.8306
rfingers 7.12502
rthumb 9.85162 -17.9189
lclavicle -1.56046e-014 3.57812e-014
lhumerus -26.3257 2.9802 89.4491
lradius 26.7338
lwrist -14.4694
lhand -12.4319 26.7657
lfingers 7.12502
lthumb 13.6408 56.2987
rfemur -8.50138 2.93268 28.0045
rtibia 14.5774
rfoot 1.70154 -7.93567
rtoes 3.87157
lfemur -14.5924 0.960411 -14.1117
ltibia 68.7767
lfoot 15.4504 -11.2202
ltoes 25.9344
179
root 0.0383058 17.7985 -4.97071 -3.26052 7.41725 -3.06854
lowerback 6.41644 -0.864579 0.199063
upperback 0.973656 -1.02364 3.90025
thorax -2.52561 -0.496864 4.01032
lowerneck -15.0954 -4.85368 -10.2371
upperneck 22.8835 -5.64571 5.87811
head 10.2727 -2.82402 3.03622
rclavicle 1.63003e-014 5.56597e-015
rhumerus -30.5316 -14.0704 -77.495
rradius 28.0682
rwrist 9.56462
rhand -16.6438 10.5833
rfingers 7.12502
rthumb 9.57903 -19.179
lclavicle 1.63003e-014 5.56597e-015
lhumerus -26.252 3.37661 89.4278
lradius 26.4218
lwrist -13.9089
lhand -11.1902 30.4051
lfingers 7.12502
lthumb 14.8373 59.8539
rfemur -7.88297 3.0479 28.0922
rtibia 13.9153
rfoot 1.81196 -7.87527
rtoes 3.5267
lfemur -15.6187 1.24706 -14.0818
ltibia 69.6701
lfoot 6.64576 -9.01293
ltoes -9.02696
180
root 0.034748 17.8105 -4.89418 -3.26489 7.2045 -2.94379
lowerback 6.43579 -0.705005 0.118456
upperback 0.997566 -0.818686 3.83516
thorax -2.52539 -0.394283 3.97087
lowerneck -15.3122 -4.9402 -10.2062
upperneck 23.1346 -5.7524 5.83837
head 10.4131 -2.87309 3.00117
rclavicle -4.89507e-015 -2.54444e-014
rhumerus -29.9415 -13.9224 -77.5272
rradius 28.5054
rwrist 10.7092
rhand -16.4267 8.8017
rfingers 7.12502
rthumb 9.78852 -20.9508
lclavicle -4.89507e-015 -2.54444e-014
lhumerus -26.2741 3.80891 89.3551
lradius 26.1058
lwrist -13.8504
lhand -20.0411 17.3141
lfingers 7.12502
lthumb 6.30016 47.2004
rfemur -7.33096 3.02867 28.0556
rtibia 13.2781
rfoot 2.02171 -7.64799
rtoes 3.47043
lfemur -16.6003 1.57335 -14.1748
ltibia 70.465
lfoot 6.14459 -8.75634
ltoes -8.18052
181
root 0.0292197 17.8208 -4.82516 -3.29126 6.86477 -3.11687
lowerback 6.5754 -0.550719 0.346792
upperback 1.01905 -0.594148 3.83267
thorax -2.59887 -0.283635 3.8221
lowerneck -15.5926 -4.95888 -10.2154
upperneck 23.3724 -5.78096 5.93443
head 10.5594 -2.87295 3.03221
rclavicle -2.03754e-015 8.74653e-015
rhumerus -29.4051 -13.427 -77.8457
rradius 29.4176
rwrist 11.4343
rhand -15.2342 4.85817
rfingers 7.12502
rthumb 10.9388 -24.8369
lclavicle -2.03754e-015 8.74653e-015
lhumerus -26.5708 4.08225 89.2538
lradius 26.3115
lwrist -13.4637
lhand -12.257 30.5399
lfingers 7.12502
lthumb 13.8093 60.0615
rfemur -6.89749 3.27516 28.3621
rtibia 12.8896
rfoot 2.13575 -7.55498
rtoes 2.8145
lfemur -17.4465 2.01208 -13.8974
ltibia 71.2198
lfoot 5.1816 -8.78797
ltoes -8.97087
182
root 0.0243614 17.8323 -4.75466 -3.24111 6.70251 -3.11572
lowerback 6.65432 -0.446558 0.421763
upperback 0.963744 -0.446704 3.80544
thorax -2.71036 -0.209514 3.74033
lowerneck -15.4416 -4.92724 -10.3111
upperneck 23.3648 -5.7638 6.07876
head 10.5335 -2.8594 3.10537
rclavicle -5.2181e-015 -1.74931e-014
rhumerus -29.009 -13.1246 -77.9845
rradius 29.5533
rwrist 10.5632
rhand -15.0645 4.16301
rfingers 7.12502
rthumb 11.1025 -25.5233
lclavicle -5.2181e-015 -1.74931e-014
lhumerus -27.1736 4.37871 89.1758
lradius 26.7377
lwrist -13.104
lhand -11.9392 30.8949
lfingers 7.12502
lthumb 14.1156 60.3955
rfemur -6.56908 3.40335 28.4541
rtibia 12.6887
rfoot 2.10063 -7.5541
rtoes 2.00416
lfemur -18.2473 2.37932 -13.8467
ltibia 71.9061
lfoot 4.07551 -8.91791
ltoes -10.6633
183
root 0.0205033 17.8349 -4.68934 -3.23514 6.67357 -3.08663
lowerback 6.73722 -0.363258 0.508792
upperback 0.882673 -0.32615 3.74222
thorax -2.84885 -0.148898 3.61642
lowerneck -15.2378 -4.97359 -10.3097
upperneck 23.3576 -5.85891 6.10788
head 10.5015 -2.90296 3.10473
rclavicle -1.04362e-015 1.82882e-014
rhumerus -28.7682 -12.7592 -78.1135
rradius 29.6262
rwrist 8.77441
rhand -16.2244 6.30357
rfingers 7.12502
rthumb 9.98371 -23.4397
lclavicle -1.04362e-015 1.82882e-014
lhumerus -27.5996 4.4561 89.1447
lradius 26.761
lwrist -12.4823
lhand -12.1293 31.0291
lfingers 7.12502
lthumb 13.9324 60.5423
rfemur -6.19277 3.36947 28.4959
rtibia 12.4449
rfoot 2.00502 -7.54157
rtoes 1.75483
lfemur -19.0786 2.51844 -13.8816
ltibia 72.5035
lfoot 2.64436 -8.83704
ltoes -13.0179
184
root 0.0167666 17.8344 -4.63073 -3.27911 6.55611 -3.27229
lowerback 6.98159 -0.302351 0.826229
upperback 0.804328 -0.211621 3.72307
thorax -3.07469 -0.0935209 3.41029
lowerneck -15.2751 -5.01401 -10.2716
upperneck 23.4282 -5.92921 6.12183
head 10.5401 -2.93005 3.09355
rclavicle -5.49143e-015 -9.54166e-015
rhumerus -28.4652 -12.3121 -78.3407
rradius 29.6588
rwrist 6.69417
rhand -17.8987 9.8903
rfingers 7.12502
rthumb 8.36807 -19.9239
lclavicle -5.49143e-015 -9.54166e-015
lhumerus -27.9963 4.59678 89.0058
lradius 26.8881
lwrist -12.0816
lhand -11.419 31.2542
lfingers 7.12502
lthumb 14.6169 60.719
rfemur -5.83585 3.23642 28.7691
rtibia 12.2187
rfoot 1.85846 -7.32252
rtoes 1.74657
lfemur -19.9394 2.64351 -13.6846
ltibia 72.9921
lfoot 1.01188 -8.62616
ltoes -15.5698
